<svg xmlns="http://www.w3.org/2000/svg" height="936pt" version="1.1" viewBox="0 0 936.24949 936" width="936pt">
<g id="surface1">
<path d="M 67.523438 230.035156 L 285.824219 448.335938 L 307.875 426.285156 L 147.371094 265.785156 L 172.109375 241.058594 L 332.601562 401.554688 L 354.652344 379.507812 L 194.144531 219.007812 L 218.886719 194.28125 L 379.375 354.773438 L 401.425781 332.722656 L 240.921875 172.230469 L 265.660156 147.503906 L 426.160156 307.996094 L 448.207031 285.945312 L 229.914062 67.652344 L 196.597656 34.351562 C 167.65625 4.992188 125.214844 -6.605469 85.375 3.96875 C 45.523438 14.542969 14.414062 45.664062 3.847656 85.5 C -6.730469 125.339844 4.859375 167.796875 34.214844 196.726562 Z M 243.609375 125.457031 L 125.324219 243.742188 L 100.59375 219.007812 L 218.886719 100.722656 Z M 115.40625 31.894531 C 137.597656 31.835938 158.894531 40.65625 174.550781 56.386719 L 196.835938 78.679688 L 78.546875 196.957031 L 56.265625 174.683594 C 32.34375 150.757812 25.179688 114.792969 38.132812 83.535156 C 51.078125 52.269531 81.574219 31.894531 115.40625 31.894531 Z M 115.40625 31.894531 " style=" stroke:none;fill-rule:nonzero;fill:rgb(0%,0%,0%);fill-opacity:1;" />
<path d="M 920.558594 936.273438 C 925.175781 936.273438 929.566406 934.226562 932.53125 930.671875 C 935.488281 927.125 936.730469 922.445312 935.898438 917.890625 L 904.710938 746.367188 C 904.140625 743.253906 902.632812 740.378906 900.394531 738.140625 L 650.910156 488.652344 L 628.863281 510.703125 L 855.746094 737.589844 L 816.191406 747.484375 L 604.136719 535.417969 L 582.089844 557.46875 L 795.816406 771.210938 L 795.816406 795.945312 L 771.082031 795.945312 L 557.355469 582.210938 L 535.304688 604.261719 L 747.367188 816.320312 L 737.476562 855.882812 L 510.578125 628.988281 L 488.527344 651.039062 L 738.015625 900.519531 C 740.253906 902.769531 743.125 904.277344 746.246094 904.835938 L 917.761719 936.027344 C 918.679688 936.195312 919.621094 936.273438 920.558594 936.273438 Z M 764.472656 876.445312 L 776.800781 827.128906 L 811.40625 827.128906 C 820.019531 827.128906 826.996094 820.144531 826.996094 811.535156 L 826.996094 776.941406 L 876.316406 764.605469 L 886.953125 823.09375 L 823.019531 887.015625 Z M 860.257812 893.882812 L 893.75 860.378906 L 901.191406 901.316406 Z M 860.257812 893.882812 " style=" stroke:none;fill-rule:nonzero;fill:rgb(0%,0%,0%);fill-opacity:1;" />
<path d="M 783.574219 35.019531 C 787.484375 31.09375 789.035156 25.398438 787.621094 20.035156 C 786.226562 14.675781 782.082031 10.46875 776.742188 8.972656 C 729.164062 -4.703125 678.300781 -1.347656 632.929688 18.476562 C 581 40.789062 539.613281 82.175781 517.292969 134.113281 C 498.738281 176.578125 494.59375 223.953125 505.488281 269.003906 L 36.074219 738.410156 C 18.625 755.304688 6.835938 777.191406 2.34375 801.054688 C -3.65625 834.511719 5.460938 868.902344 27.242188 894.992188 C 49.027344 921.085938 81.230469 936.203125 115.222656 936.273438 C 122.125 936.269531 129.007812 935.675781 135.800781 934.5 C 159.675781 930.007812 181.558594 918.226562 198.457031 900.769531 L 667.953125 431.367188 C 713 442.273438 760.382812 438.140625 802.84375 419.5625 C 854.777344 397.242188 896.164062 355.863281 918.480469 303.929688 C 938.292969 258.566406 941.652344 207.695312 927.976562 160.117188 C 926.488281 154.78125 922.269531 150.636719 916.921875 149.226562 C 911.558594 147.828125 905.855469 149.371094 901.929688 153.289062 L 771.164062 284.058594 C 758.980469 296.234375 739.242188 296.234375 727.0625 284.058594 L 652.878906 209.875 C 640.703125 197.6875 640.703125 177.953125 652.878906 165.777344 Z M 630.765625 231.933594 L 704.953125 306.128906 C 729.308594 330.476562 768.789062 330.476562 793.140625 306.128906 L 903.402344 195.8125 C 907.558594 228.4375 902.804688 261.582031 889.648438 291.71875 C 870.523438 336.25 835.042969 371.730469 790.507812 390.855469 C 751.652344 407.851562 708.082031 410.746094 667.328125 399.027344 C 661.898438 397.511719 656.074219 399.035156 652.09375 403.027344 L 176.40625 878.738281 C 164.054688 891.621094 148.011719 900.371094 130.480469 903.785156 C 103.441406 908.695312 75.699219 900.027344 56.265625 880.59375 C 36.832031 861.148438 28.164062 833.417969 33.082031 806.371094 C 36.484375 788.847656 45.230469 772.8125 58.125 760.453125 L 533.851562 284.726562 C 537.839844 280.746094 539.363281 274.921875 537.839844 269.496094 C 526.136719 228.742188 529.035156 185.175781 546.019531 146.316406 C 565.144531 101.792969 600.632812 66.308594 645.15625 47.183594 C 668.101562 37.21875 692.835938 32.015625 717.855469 31.894531 C 725.589844 31.917969 733.316406 32.4375 740.988281 33.453125 L 630.683594 143.773438 C 606.386719 168.144531 606.414062 207.589844 630.742188 231.925781 Z M 630.765625 231.933594 " style=" stroke:none;fill-rule:nonzero;fill:rgb(0%,0%,0%);fill-opacity:1;" />
<path d="M 117.527344 764.753906 C 87.394531 764.753906 62.957031 789.191406 62.957031 819.324219 C 62.957031 849.472656 87.394531 873.90625 117.527344 873.90625 C 147.667969 873.90625 172.109375 849.472656 172.109375 819.324219 C 172.109375 789.191406 147.667969 764.753906 117.527344 764.753906 Z M 117.527344 842.71875 C 104.609375 842.71875 94.144531 832.25 94.144531 819.324219 C 94.144531 806.414062 104.609375 795.945312 117.527344 795.945312 C 130.445312 795.945312 140.917969 806.414062 140.917969 819.324219 C 140.917969 832.25 130.445312 842.71875 117.527344 842.71875 Z M 117.527344 842.71875 " style=" stroke:none;fill-rule:nonzero;fill:rgb(0%,0%,0%);fill-opacity:1;" />
<path d="M 527.507812 340.527344 L 184.46875 683.558594 C 165.457031 702.5625 165.457031 733.386719 184.46875 752.390625 C 203.472656 771.390625 234.285156 771.390625 253.292969 752.390625 L 596.339844 409.355469 C 615.339844 390.351562 615.339844 359.527344 596.339844 340.527344 C 577.328125 321.523438 546.511719 321.523438 527.507812 340.527344 Z M 574.289062 387.304688 L 231.253906 730.34375 C 224.417969 737.167969 213.339844 737.167969 206.519531 730.34375 C 199.695312 723.511719 199.695312 712.445312 206.519531 705.609375 L 549.558594 362.570312 C 556.382812 355.746094 567.460938 355.746094 574.289062 362.570312 C 581.117188 369.402344 581.117188 380.472656 574.289062 387.304688 Z M 574.289062 387.304688 " style=" stroke:none;fill-rule:nonzero;fill:rgb(0%,0%,0%);fill-opacity:1;" />
</g>
</svg>